<?xml version="1.0" encoding="UTF-8"?>
<!DOCTYPE svg  PUBLIC '-//W3C//DTD SVG 1.1//EN'  'http://www.w3.org/Graphics/SVG/1.1/DTD/svg11.dtd'>
<svg width="340.16px" height="123.46px" enable-background="new 0 93.245 340.158 123.457" version="1.1" viewBox="0 93.245 340.16 123.46" xml:space="preserve" xmlns="http://www.w3.org/2000/svg">
<g fill="#EA570F">
	<path d="m170.49 200.28c-0.029 0.027-0.057 0.101-0.078 0.222-0.023 0.12-0.089 0.684-0.199 1.688-0.109 1.005-0.164 1.808-0.164 2.408 0 0.25 0.029 0.528 0.088 0.836 0.018 0.046 0.024 0.098 0.024 0.156 0 0.178-0.051 0.335-0.154 0.476s-0.234 0.211-0.396 0.211c-0.107 0-0.244-0.052-0.409-0.159-0.165-0.105-0.265-0.286-0.298-0.541-0.031-0.256-0.049-0.588-0.049-0.997 0-0.559 0.065-1.392 0.196-2.497 0.131-1.107 0.209-1.67 0.236-1.693-0.093 0-0.459 0.023-1.1 0.073-0.645 0.049-1.02 0.074-1.124 0.074-0.336 0-0.57-0.044-0.701-0.131s-0.196-0.223-0.196-0.41c0-0.166 0.068-0.293 0.208-0.382 0.139-0.089 0.492-0.133 1.059-0.133 0.941 0 1.866-0.062 2.772-0.188 1.02-0.156 1.794-0.234 2.32-0.234 0.589 0 0.947 0.068 1.075 0.207 0.127 0.14 0.19 0.278 0.19 0.416 0 0.316-0.141 0.476-0.422 0.476-0.091 0-0.238-0.01-0.44-0.028-0.206-0.017-0.447-0.025-0.722-0.025-0.826-1e-3 -1.399 0.058-1.716 0.175zm3.98 3.559c0.543-1.018 1.012-1.711 1.405-2.077 0.396-0.369 0.794-0.553 1.196-0.553 0.278 0 0.509 0.095 0.693 0.286 0.187 0.192 0.32 0.69 0.405 1.496 0.037 0.382 0.082 0.691 0.138 0.926 0.056 0.236 0.117 0.444 0.186 0.627 0.069 0.181 0.168 0.352 0.295 0.513 0.099 0.127 0.147 0.249 0.147 0.368 0 0.117-0.057 0.225-0.169 0.323s-0.243 0.147-0.391 0.147c-0.291 0-0.549-0.159-0.775-0.476-0.227-0.318-0.36-0.755-0.402-1.315-0.052-0.685-0.108-1.12-0.169-1.312-0.061-0.189-0.161-0.284-0.302-0.284-0.189 0-0.56 0.38-1.107 1.138-0.548 0.757-0.942 1.363-1.184 1.816-0.151 0.344-0.269 0.566-0.349 0.669-0.082 0.101-0.185 0.15-0.305 0.15-0.199 0-0.362-0.048-0.486-0.147-0.124-0.097-0.186-0.235-0.186-0.417 0-0.087 0.043-0.363 0.132-0.829 0.334-1.756 0.606-3.627 0.819-5.608 0.052-0.478 0.152-0.808 0.302-0.989s0.286-0.271 0.41-0.271c0.173 0 0.323 0.066 0.451 0.201 0.127 0.134 0.192 0.319 0.192 0.559 0 0.367-0.045 0.789-0.134 1.267-0.087 0.478-0.253 1.24-0.494 2.287-0.145 0.63-0.252 1.133-0.318 1.505zm9.55 0.574c0 0.34-0.286 0.747-0.859 1.22-0.571 0.473-1.218 0.71-1.938 0.71-0.554 0-0.989-0.174-1.306-0.522-0.318-0.349-0.476-0.834-0.476-1.456 0-0.916 0.323-1.775 0.972-2.576 0.648-0.803 1.34-1.202 2.075-1.202 0.367 0 0.662 0.115 0.883 0.348 0.223 0.233 0.335 0.51 0.335 0.829 0 0.57-0.272 1.112-0.82 1.627-0.546 0.516-1.247 0.871-2.101 1.068-0.098 0.022-0.146 0.081-0.146 0.176 0 0.158 0.069 0.307 0.208 0.449 0.14 0.143 0.325 0.215 0.558 0.215 0.657 0 1.311-0.34 1.959-1.018 0.124-0.13 0.244-0.195 0.361-0.195 0.199-1e-3 0.295 0.107 0.295 0.327zm-3.293-0.868c0.518-0.104 0.973-0.326 1.366-0.663 0.396-0.337 0.592-0.643 0.592-0.918 0-0.107-0.03-0.197-0.091-0.271-0.06-0.073-0.137-0.11-0.232-0.11-0.285 0-0.6 0.21-0.948 0.628-0.347 0.418-0.574 0.862-0.687 1.334zm12.966-1.434c0.611 0.217 1.008 0.475 1.188 0.775 0.183 0.302 0.273 0.597 0.273 0.889 0 0.624-0.4 1.268-1.202 1.926-0.801 0.66-1.643 0.99-2.523 0.99-0.491 0-0.735-0.149-0.735-0.447 0-0.491 0.342-0.735 1.025-0.735h0.241c0.32 0 0.724-0.186 1.211-0.558s0.732-0.749 0.732-1.131c0-0.233-0.101-0.44-0.301-0.621-0.199-0.182-0.465-0.273-0.798-0.273-0.027 0-0.156 0.052-0.389 0.152-0.236 0.103-0.409 0.152-0.521 0.152-0.307 0-0.508-0.037-0.6-0.112-0.094-0.075-0.141-0.228-0.141-0.457 0-0.159 0.333-0.375 1.002-0.646 0.378-0.151 0.759-0.409 1.137-0.774 0.381-0.365 0.569-0.673 0.569-0.925 0-0.324-0.234-0.485-0.706-0.485-0.441 0-0.875 0.049-1.3 0.147-0.426 0.097-0.66 0.22-0.707 0.361-0.046 0.145-0.166 0.895-0.363 2.248-0.196 1.355-0.294 2.138-0.294 2.347l-0.05 0.662c-0.025 0.333-0.103 0.55-0.229 0.645-0.129 0.098-0.273 0.146-0.438 0.146-0.438 0-0.658-0.283-0.658-0.85 0-0.089 0.028-0.246 0.084-0.476 0.144-0.593 0.284-1.417 0.42-2.475 0.136-1.057 0.203-1.624 0.203-1.707 0-0.164-0.032-0.246-0.098-0.246l-0.134 0.011c-0.097 0.01-0.185-0.021-0.26-0.091s-0.124-0.138-0.147-0.199c-0.021-0.063-0.033-0.119-0.033-0.171 0-0.325 0.454-0.632 1.363-0.923 0.91-0.292 1.866-0.438 2.866-0.438 0.534 0 0.967 0.143 1.299 0.426 0.331 0.283 0.497 0.609 0.497 0.983 0 0.268-0.105 0.541-0.318 0.817s-0.6 0.631-1.165 1.063zm6.914 2.302c0 0.34-0.286 0.747-0.859 1.22-0.571 0.473-1.218 0.71-1.938 0.71-0.553 0-0.988-0.174-1.306-0.522s-0.476-0.834-0.476-1.456c0-0.916 0.324-1.775 0.972-2.576 0.648-0.803 1.341-1.202 2.075-1.202 0.367 0 0.662 0.115 0.884 0.348 0.223 0.233 0.335 0.51 0.335 0.829 0 0.57-0.273 1.112-0.821 1.627-0.546 0.516-1.246 0.871-2.101 1.068-0.097 0.022-0.146 0.081-0.146 0.176 0 0.158 0.068 0.307 0.208 0.449 0.139 0.143 0.324 0.215 0.558 0.215 0.656 0 1.31-0.34 1.958-1.018 0.124-0.13 0.244-0.195 0.362-0.195 0.198-1e-3 0.295 0.107 0.295 0.327zm-3.293-0.868c0.518-0.104 0.974-0.326 1.367-0.663 0.395-0.337 0.591-0.643 0.591-0.918 0-0.107-0.029-0.197-0.09-0.271-0.061-0.073-0.138-0.11-0.233-0.11-0.284 0-0.6 0.21-0.948 0.628-0.347 0.418-0.575 0.862-0.687 1.334zm6.419 1.31c-0.013-0.178-0.295-0.394-0.844-0.648-0.674-0.323-1.104-0.603-1.29-0.836-0.188-0.234-0.279-0.489-0.279-0.764 0-0.58 0.323-1.086 0.973-1.52s1.257-0.649 1.819-0.649c0.553 0 0.829 0.241 0.829 0.722 0 0.127-0.063 0.241-0.189 0.343-0.125 0.101-0.232 0.153-0.321 0.153-0.035 0-0.101-0.024-0.191-0.069-0.092-0.047-0.162-0.068-0.211-0.068-0.291 0-0.611 0.097-0.961 0.293-0.351 0.197-0.526 0.426-0.526 0.688 0 0.128 0.062 0.25 0.187 0.37 0.125 0.119 0.378 0.269 0.762 0.449 0.564 0.268 0.938 0.511 1.117 0.726 0.181 0.216 0.271 0.455 0.271 0.717 0 0.478-0.323 0.876-0.97 1.196-0.646 0.318-1.372 0.478-2.177 0.478-0.593 0-0.889-0.215-0.889-0.644 0-0.156 0.062-0.29 0.188-0.402 0.124-0.11 0.263-0.166 0.417-0.166 0.062 0 0.157 0.022 0.29 0.069 0.13 0.048 0.251 0.071 0.361 0.071 0.309 0 0.63-0.048 0.969-0.146 0.335-0.098 0.559-0.218 0.665-0.363zm3.936-2.739c-0.029 0-0.121 0.365-0.276 1.094-0.156 0.73-0.233 1.173-0.233 1.325 0 0.27 0.028 0.456 0.086 0.563 0.057 0.105 0.15 0.159 0.281 0.159 0.185 0 0.36-0.032 0.527-0.096 0.17-0.063 0.391-0.208 0.665-0.429 0.171-0.141 0.315-0.212 0.433-0.212 0.096 0 0.171 0.027 0.228 0.081 0.059 0.054 0.087 0.117 0.087 0.189 0 0.288-0.232 0.613-0.696 0.979-0.466 0.364-0.957 0.547-1.473 0.547-0.433 0-0.763-0.127-0.99-0.383-0.226-0.255-0.34-0.622-0.34-1.1 0-0.442 0.164-1.323 0.496-2.645-0.21 0.023-0.355 0.033-0.438 0.033h-0.104c-0.148 0-0.303-0.049-0.458-0.146-0.154-0.099-0.233-0.257-0.233-0.473 0-0.274 0.156-0.412 0.468-0.412l1.05-0.038c0.138-0.396 0.283-0.915 0.436-1.557 0.093-0.398 0.3-0.598 0.623-0.598 0.182 0 0.322 0.054 0.423 0.164 0.102 0.108 0.152 0.231 0.152 0.365 0 0.052-0.14 0.558-0.417 1.516 1.04-0.09 1.611-0.137 1.713-0.137 0.173 0 0.288 0.024 0.344 0.076 0.056 0.051 0.082 0.147 0.082 0.292 0 0.291-0.246 0.476-0.74 0.555l-1.696 0.288zm8.402 1.763c-0.082 0.759-0.122 1.367-0.122 1.825 0 0.18-0.056 0.341-0.163 0.481-0.108 0.141-0.254 0.211-0.441 0.211-0.402 0-0.604-0.234-0.604-0.702 0-0.26 0.096-1.132 0.285-2.621 0.154-1.203 0.229-1.922 0.229-2.154 0-0.265-0.011-0.416-0.034-0.451-0.212-0.108-0.318-0.303-0.318-0.584 0-0.274 0.442-0.515 1.33-0.719 0.887-0.204 1.646-0.307 2.277-0.307 0.738 0 1.328 0.152 1.767 0.456 0.438 0.305 0.657 0.715 0.657 1.232 0 0.745-0.402 1.4-1.208 1.965-0.804 0.564-1.782 0.965-2.935 1.199-0.42 0.09-0.661 0.145-0.72 0.169zm0.437-3.686-0.29 2.582c0.941-0.158 1.769-0.438 2.482-0.838s1.07-0.829 1.07-1.288c0-0.547-0.432-0.819-1.296-0.819-0.597 0-1.254 0.12-1.966 0.363zm5.885 3.475 0.082-0.157c0.396-0.796 0.822-1.441 1.277-1.937 0.458-0.496 0.903-0.744 1.339-0.744 0.333 0 0.606 0.092 0.817 0.276 0.211 0.183 0.316 0.4 0.316 0.651 0 0.157-0.036 0.293-0.108 0.405s-0.171 0.17-0.3 0.17c-0.203 0-0.387-0.084-0.555-0.25-0.117-0.108-0.211-0.162-0.279-0.162-0.245 0-0.655 0.38-1.231 1.142-0.576 0.765-0.923 1.62-1.04 2.573-0.037 0.275-0.116 0.466-0.241 0.576-0.124 0.109-0.292 0.164-0.505 0.164-0.226 0-0.387-0.129-0.482-0.385-0.094-0.257-0.141-0.677-0.141-1.258 0-0.24 5e-3 -0.562 0.019-0.969 0.014-0.382 0.052-0.849 0.114-1.402 0.015-0.144 0.026-0.258 0.033-0.34 0.03-0.319 0.063-0.539 0.101-0.66 0.038-0.118 0.125-0.23 0.263-0.335s0.29-0.157 0.456-0.157c0.178 0 0.312 0.051 0.403 0.152s0.138 0.213 0.138 0.334c0 0.153-0.074 0.472-0.222 0.956-0.052 0.168-0.097 0.367-0.132 0.6l-0.122 0.757zm6.689-4.86c0 0.232-0.104 0.437-0.313 0.611-0.209 0.176-0.392 0.263-0.546 0.263-0.196 0-0.37-0.082-0.522-0.246-0.151-0.163-0.229-0.327-0.229-0.491 0-0.234 0.076-0.425 0.227-0.571 0.15-0.146 0.367-0.218 0.648-0.218 0.22 0 0.396 0.064 0.532 0.194 0.135 0.129 0.203 0.283 0.203 0.458zm-2.37 4.036v5e-3c0.105-0.597 0.157-0.937 0.157-1.021 0-0.241 0.054-0.444 0.159-0.608s0.254-0.246 0.443-0.246c0.224 0 0.397 0.053 0.521 0.157 0.124 0.105 0.186 0.223 0.186 0.354 0 0.13-0.06 0.4-0.181 0.811l-0.03 0.107c-0.179 0.632-0.288 1.147-0.323 1.546-0.037 0.398-0.054 0.722-0.054 0.967 0 0.199 0.034 0.466 0.103 0.801 0.01 0.059 0.015 0.106 0.015 0.146 0 0.075-0.072 0.178-0.214 0.305-0.143 0.128-0.295 0.191-0.459 0.191-0.431 0-0.646-0.327-0.646-0.982 0-0.556 0.078-1.232 0.234-2.031 0.033-0.179 0.061-0.347 0.089-0.502zm6.66 2.541c-0.157-0.295-0.271-0.845-0.344-1.648-0.071-0.838-0.232-1.256-0.48-1.256-0.236 0-0.644 0.436-1.223 1.308-0.578 0.871-0.936 1.515-1.069 1.93-0.03 0.126-0.085 0.228-0.165 0.311-0.079 0.082-0.159 0.122-0.238 0.122-0.496 0-0.745-0.227-0.745-0.682 0-0.154 0.048-0.505 0.147-1.051 0.127-0.707 0.19-1.569 0.19-2.591 0-0.154 0.067-0.318 0.201-0.493 0.134-0.176 0.276-0.263 0.427-0.263 0.191 0 0.335 0.047 0.438 0.143s0.152 0.347 0.152 0.755c0 0.312-0.094 0.913-0.279 1.807 0.71-1.662 1.501-2.493 2.375-2.493 0.759 0 1.204 0.597 1.335 1.791 0.131 1.218 0.281 1.826 0.451 1.826 0.075 0 0.162-0.018 0.259-0.049 0.119-0.04 0.212-0.059 0.282-0.059 0.155 0 0.234 0.09 0.234 0.274 0 0.166-0.107 0.344-0.323 0.532-0.217 0.188-0.487 0.282-0.816 0.282-0.378 0-0.649-0.164-0.813-0.496h4e-3zm4.524-3.269c-0.028 0-0.121 0.365-0.276 1.094-0.156 0.73-0.233 1.173-0.233 1.325 0 0.27 0.029 0.456 0.086 0.563 0.057 0.105 0.15 0.159 0.281 0.159 0.185 0 0.36-0.032 0.527-0.096 0.17-0.063 0.391-0.208 0.665-0.429 0.172-0.141 0.315-0.212 0.433-0.212 0.096 0 0.171 0.027 0.228 0.081 0.059 0.054 0.088 0.117 0.088 0.189 0 0.288-0.233 0.613-0.697 0.979-0.466 0.364-0.957 0.547-1.473 0.547-0.432 0-0.762-0.127-0.99-0.383-0.226-0.255-0.34-0.622-0.34-1.1 0-0.442 0.164-1.323 0.496-2.645-0.21 0.023-0.355 0.033-0.438 0.033h-0.104c-0.149 0-0.303-0.049-0.459-0.146-0.154-0.099-0.232-0.257-0.232-0.473 0-0.274 0.155-0.412 0.467-0.412l1.051-0.038c0.137-0.396 0.282-0.915 0.435-1.557 0.093-0.398 0.301-0.598 0.624-0.598 0.181 0 0.321 0.054 0.422 0.164 0.102 0.108 0.152 0.231 0.152 0.365 0 0.052-0.139 0.558-0.417 1.516 1.04-0.09 1.611-0.137 1.714-0.137 0.172 0 0.288 0.024 0.343 0.076 0.056 0.051 0.082 0.147 0.082 0.292 0 0.291-0.246 0.476-0.74 0.555l-1.695 0.288zm5.409-3.308c0 0.232-0.104 0.437-0.313 0.611-0.209 0.176-0.392 0.263-0.546 0.263-0.196 0-0.37-0.082-0.522-0.246-0.151-0.163-0.228-0.327-0.228-0.491 0-0.234 0.075-0.425 0.226-0.571s0.367-0.218 0.648-0.218c0.22 0 0.396 0.064 0.532 0.194 0.136 0.129 0.203 0.283 0.203 0.458zm-2.37 4.036v5e-3c0.105-0.597 0.157-0.937 0.157-1.021 0-0.241 0.054-0.444 0.159-0.608s0.255-0.246 0.443-0.246c0.224 0 0.397 0.053 0.521 0.157 0.124 0.105 0.186 0.223 0.186 0.354 0 0.13-0.06 0.4-0.181 0.811l-0.03 0.107c-0.179 0.632-0.288 1.147-0.323 1.546-0.036 0.398-0.054 0.722-0.054 0.967 0 0.199 0.034 0.466 0.103 0.801 0.01 0.059 0.015 0.106 0.015 0.146 0 0.075-0.071 0.178-0.214 0.305-0.143 0.128-0.295 0.191-0.459 0.191-0.431 0-0.646-0.327-0.646-0.982 0-0.556 0.078-1.232 0.234-2.031 0.034-0.179 0.062-0.347 0.089-0.502zm6.66 2.541c-0.157-0.295-0.271-0.845-0.344-1.648-0.071-0.838-0.232-1.256-0.48-1.256-0.236 0-0.644 0.436-1.223 1.308-0.578 0.871-0.935 1.515-1.068 1.93-0.031 0.126-0.086 0.228-0.166 0.311-0.079 0.082-0.159 0.122-0.238 0.122-0.496 0-0.745-0.227-0.745-0.682 0-0.154 0.048-0.505 0.147-1.051 0.127-0.707 0.19-1.569 0.19-2.591 0-0.154 0.067-0.318 0.201-0.493 0.134-0.176 0.276-0.263 0.428-0.263 0.19 0 0.334 0.047 0.437 0.143s0.152 0.347 0.152 0.755c0 0.312-0.094 0.913-0.279 1.807 0.71-1.662 1.501-2.493 2.375-2.493 0.759 0 1.204 0.597 1.335 1.791 0.131 1.218 0.281 1.826 0.451 1.826 0.075 0 0.162-0.018 0.26-0.049 0.118-0.04 0.211-0.059 0.281-0.059 0.155 0 0.234 0.09 0.234 0.274 0 0.166-0.107 0.344-0.323 0.532-0.217 0.188-0.487 0.282-0.815 0.282-0.379 0-0.65-0.164-0.814-0.496h4e-3zm5.885-0.787c-0.363 0.411-0.786 0.746-1.269 1.011-0.483 0.263-0.899 0.394-1.249 0.394-0.347 0-0.616-0.101-0.808-0.303-0.191-0.203-0.286-0.483-0.286-0.84 0-0.508 0.19-1.072 0.576-1.693 0.384-0.622 0.918-1.163 1.6-1.622 0.682-0.46 1.297-0.689 1.843-0.689 0.301 0 0.561 0.082 0.78 0.246 0.052 0.038 0.098 0.072 0.138 0.097 0.079 0.056 0.15 0.157 0.218 0.307 0.066 0.149 0.101 0.27 0.101 0.362 0 0.059-0.063 0.256-0.187 0.593-0.127 0.35-0.216 0.69-0.268 1.019-0.051 0.328-0.151 1.149-0.302 2.461-0.134 1.143-0.452 1.977-0.956 2.503-0.505 0.527-1.064 0.79-1.679 0.79-0.645 0-1.271-0.216-1.878-0.649-0.606-0.435-0.91-0.791-0.91-1.072 0-0.25 0.121-0.374 0.364-0.374 0.094 0 0.288 0.096 0.578 0.285 0.746 0.49 1.387 0.737 1.919 0.737 0.405 0 0.746-0.255 1.021-0.765 0.275-0.511 0.493-1.442 0.654-2.798zm0.117-2.726c-0.241 0-0.56 0.144-0.952 0.434s-0.755 0.681-1.09 1.171c-0.333 0.491-0.499 0.898-0.499 1.222 0 0.171 0.062 0.254 0.186 0.254 0.423 0 0.841-0.171 1.257-0.512 0.415-0.342 0.752-0.735 1.008-1.18 0.257-0.445 0.386-0.782 0.386-1.012 0-0.114-0.03-0.206-0.089-0.274-0.059-0.07-0.128-0.103-0.207-0.103zm10.936-1.046c0-0.324-0.084-0.549-0.252-0.675-0.165-0.126-0.412-0.189-0.735-0.189-0.553 0-1.066 0.134-1.539 0.406-0.473 0.27-0.709 0.565-0.709 0.889 0 0.206 0.089 0.382 0.269 0.528 0.178 0.146 0.638 0.326 1.38 0.542 0.779 0.227 1.357 0.475 1.735 0.744 0.377 0.27 0.566 0.595 0.566 0.974 0 0.631-0.48 1.211-1.442 1.735-0.962 0.525-1.962 0.787-2.998 0.787-0.337 0-0.606-0.07-0.812-0.211-0.202-0.141-0.303-0.313-0.303-0.52 0-0.164 0.045-0.316 0.138-0.457 0.092-0.141 0.2-0.211 0.328-0.211 0.078 0 0.15 0.013 0.216 0.04 0.344 0.147 0.665 0.221 0.962 0.221 0.511 0 1.083-0.144 1.72-0.43 0.637-0.287 0.955-0.566 0.955-0.842 0-0.115-0.078-0.225-0.237-0.331-0.159-0.105-0.483-0.24-0.97-0.4-0.709-0.231-1.243-0.424-1.602-0.573-0.359-0.15-0.63-0.349-0.816-0.592-0.185-0.244-0.276-0.537-0.276-0.881 0-0.613 0.357-1.181 1.07-1.708 0.712-0.526 1.55-0.791 2.513-0.791 0.553 0 0.988 0.11 1.307 0.33 0.32 0.219 0.479 0.469 0.479 0.75-1e-3 0.578-0.316 0.865-0.947 0.865zm6.345 2.788c-0.219 0.766-0.636 1.41-1.249 1.935-0.613 0.526-1.227 0.789-1.838 0.789-0.484 0-0.885-0.178-1.197-0.533-0.315-0.354-0.472-0.79-0.472-1.308 0-0.845 0.289-1.676 0.863-2.493 0.576-0.818 1.274-1.228 2.096-1.228 0.56 0 1.014 0.208 1.36 0.621 0.347 0.414 0.519 0.906 0.519 1.479 0 0.25-0.026 0.493-0.082 0.732v6e-3zm-2.553-1.552c-0.229 0.203-0.452 0.526-0.672 0.972-0.219 0.446-0.328 0.892-0.328 1.341 0 0.271 0.049 0.495 0.149 0.671 0.099 0.178 0.231 0.265 0.396 0.265 0.405 0 0.827-0.239 1.267-0.72 0.437-0.48 0.656-1.021 0.656-1.62 0-0.337-0.07-0.615-0.213-0.832-0.143-0.218-0.342-0.327-0.597-0.327-0.242 0-0.46 0.084-0.653 0.251h-5e-3zm5.374-4.269c0.354 0 0.531 0.192 0.531 0.58 0 0.176-0.025 0.366-0.074 0.571-0.05 0.204-0.184 0.71-0.401 1.519-0.161 0.585-0.283 1.225-0.367 1.917-0.082 0.691-0.124 1.232-0.124 1.621 0 0.415 0.03 0.909 0.092 1.482 0.018 0.154 0.025 0.25 0.025 0.29 0 0.195-0.072 0.363-0.216 0.504-0.145 0.141-0.302 0.211-0.471 0.211-0.233 0-0.397-0.108-0.491-0.328-0.096-0.219-0.142-0.595-0.142-1.129 0-1.147 0.134-2.501 0.405-4.059 0.27-1.557 0.49-2.477 0.661-2.758 0.173-0.281 0.362-0.421 0.572-0.421zm4.517 6.512c-0.315 0.571-0.679 1.027-1.093 1.363-0.413 0.337-0.834 0.507-1.26 0.507-0.251 0-0.506-0.133-0.762-0.397-0.258-0.267-0.386-0.673-0.386-1.223 0-0.389 0.098-0.977 0.294-1.763 0.17-0.646 0.256-1.139 0.256-1.476 0.131-0.276 0.335-0.414 0.613-0.414 0.188 0 0.342 0.063 0.454 0.189s0.169 0.253 0.169 0.381c0 0.232-0.082 0.563-0.245 0.991-0.095 0.255-0.197 0.616-0.306 1.082-0.111 0.466-0.166 0.766-0.166 0.896 0 0.436 0.09 0.651 0.27 0.651 0.285 0 0.67-0.272 1.154-0.819 0.484-0.546 0.801-1.105 0.946-1.679 0.147-0.559 0.278-0.926 0.394-1.099 0.114-0.174 0.276-0.259 0.485-0.259 0.341 0 0.511 0.188 0.511 0.567 0 0.057-0.028 0.168-0.083 0.335-0.194 0.578-0.29 1.231-0.29 1.958 0 0.85 0.145 1.358 0.433 1.526 0.094 0.056 0.143 0.124 0.143 0.206 0 0.117-0.084 0.229-0.252 0.333-0.166 0.105-0.325 0.158-0.476 0.158-0.258 0-0.457-0.183-0.597-0.548-0.138-0.361-0.206-0.85-0.206-1.466zm4.655-2.189c-0.029 0-0.121 0.365-0.276 1.094-0.156 0.73-0.233 1.173-0.233 1.325 0 0.27 0.028 0.456 0.086 0.563 0.057 0.105 0.15 0.159 0.281 0.159 0.185 0 0.36-0.032 0.527-0.096 0.169-0.063 0.391-0.208 0.665-0.429 0.171-0.141 0.315-0.212 0.433-0.212 0.096 0 0.171 0.027 0.228 0.081 0.059 0.054 0.087 0.117 0.087 0.189 0 0.288-0.232 0.613-0.697 0.979-0.465 0.364-0.956 0.547-1.472 0.547-0.433 0-0.763-0.127-0.99-0.383-0.227-0.255-0.34-0.622-0.34-1.1 0-0.442 0.164-1.323 0.496-2.645-0.21 0.023-0.355 0.033-0.438 0.033h-0.104c-0.148 0-0.303-0.049-0.459-0.146-0.153-0.099-0.232-0.257-0.232-0.473 0-0.274 0.156-0.412 0.467-0.412l1.051-0.038c0.138-0.396 0.283-0.915 0.436-1.557 0.092-0.398 0.3-0.598 0.623-0.598 0.182 0 0.321 0.054 0.423 0.164 0.102 0.108 0.151 0.231 0.151 0.365 0 0.052-0.139 0.558-0.417 1.516 1.041-0.09 1.612-0.137 1.714-0.137 0.173 0 0.288 0.024 0.344 0.076 0.056 0.051 0.082 0.147 0.082 0.292 0 0.291-0.246 0.476-0.74 0.555l-1.696 0.288z"/>
	<path d="m288.28 198.81c0 0.232-0.104 0.437-0.313 0.611-0.21 0.176-0.393 0.263-0.546 0.263-0.196 0-0.37-0.082-0.523-0.246-0.15-0.163-0.228-0.327-0.228-0.491 0-0.234 0.075-0.425 0.227-0.571 0.15-0.146 0.366-0.218 0.648-0.218 0.219 0 0.395 0.064 0.532 0.194 0.136 0.129 0.202 0.283 0.203 0.458zm-2.371 4.036v5e-3c0.106-0.597 0.158-0.937 0.158-1.021 0-0.241 0.054-0.444 0.159-0.608 0.104-0.164 0.254-0.246 0.443-0.246 0.223 0 0.397 0.054 0.521 0.157 0.123 0.105 0.186 0.223 0.186 0.354s-0.061 0.4-0.181 0.811l-0.03 0.107c-0.18 0.632-0.288 1.147-0.323 1.546-0.037 0.398-0.054 0.722-0.054 0.967 0 0.199 0.033 0.466 0.103 0.801 0.01 0.059 0.015 0.106 0.015 0.146 0 0.075-0.072 0.178-0.215 0.305-0.142 0.128-0.294 0.191-0.458 0.191-0.431 0-0.647-0.327-0.647-0.982 0-0.556 0.079-1.232 0.234-2.031 0.034-0.179 0.063-0.347 0.089-0.502zm7.177 0.77c-0.22 0.766-0.637 1.41-1.25 1.935-0.613 0.526-1.226 0.789-1.838 0.789-0.483 0-0.884-0.178-1.197-0.532-0.314-0.355-0.471-0.791-0.471-1.309 0-0.845 0.288-1.676 0.862-2.493 0.577-0.818 1.275-1.228 2.096-1.228 0.56 0 1.014 0.208 1.36 0.621 0.347 0.414 0.52 0.906 0.52 1.479 0 0.25-0.027 0.493-0.082 0.732v6e-3zm-2.553-1.552c-0.229 0.203-0.452 0.526-0.672 0.972s-0.328 0.892-0.328 1.341c0 0.271 0.048 0.495 0.148 0.671 0.099 0.178 0.231 0.266 0.396 0.266 0.405 0 0.827-0.24 1.267-0.721 0.438-0.48 0.656-1.021 0.656-1.62 0-0.337-0.07-0.614-0.212-0.832-0.143-0.218-0.342-0.327-0.597-0.327-0.243 0-0.461 0.084-0.653 0.251h-5e-3zm7.7 3.323c-0.157-0.295-0.271-0.845-0.343-1.648-0.072-0.838-0.233-1.256-0.481-1.256-0.236 0-0.643 0.436-1.223 1.308-0.578 0.871-0.935 1.515-1.068 1.93-0.03 0.126-0.086 0.228-0.166 0.311-0.079 0.082-0.159 0.122-0.238 0.122-0.496 0-0.745-0.227-0.745-0.682 0-0.154 0.049-0.505 0.147-1.051 0.127-0.707 0.19-1.569 0.19-2.591 0-0.154 0.067-0.318 0.201-0.493 0.134-0.176 0.276-0.263 0.428-0.263 0.19 0 0.334 0.047 0.437 0.143s0.152 0.347 0.152 0.755c0 0.312-0.094 0.913-0.279 1.807 0.71-1.662 1.501-2.493 2.375-2.493 0.759 0 1.205 0.597 1.335 1.791 0.131 1.218 0.282 1.826 0.451 1.826 0.075 0 0.162-0.018 0.26-0.049 0.119-0.04 0.211-0.059 0.281-0.059 0.156 0 0.234 0.09 0.234 0.274 0 0.166-0.106 0.344-0.323 0.532-0.216 0.188-0.487 0.282-0.815 0.282-0.379 0-0.65-0.164-0.814-0.496h4e-3zm4.835-0.53c-0.014-0.178-0.295-0.394-0.845-0.648-0.673-0.323-1.104-0.603-1.29-0.836-0.187-0.234-0.279-0.489-0.279-0.764 0-0.58 0.323-1.086 0.974-1.52 0.649-0.434 1.256-0.649 1.819-0.649 0.553 0 0.829 0.241 0.829 0.722 0 0.127-0.064 0.241-0.189 0.343-0.126 0.101-0.233 0.153-0.321 0.153-0.036 0-0.101-0.024-0.191-0.069-0.092-0.047-0.162-0.068-0.211-0.068-0.292 0-0.612 0.097-0.962 0.293-0.35 0.197-0.525 0.426-0.525 0.688 0 0.128 0.062 0.25 0.186 0.37 0.126 0.119 0.379 0.269 0.762 0.449 0.564 0.268 0.938 0.511 1.117 0.726 0.182 0.216 0.271 0.455 0.271 0.717 0 0.478-0.323 0.876-0.97 1.196-0.646 0.318-1.372 0.478-2.176 0.478-0.593 0-0.89-0.215-0.89-0.644 0-0.156 0.063-0.29 0.188-0.402 0.124-0.11 0.264-0.166 0.417-0.166 0.063 0 0.158 0.022 0.29 0.069 0.131 0.048 0.251 0.071 0.361 0.071 0.309 0 0.631-0.048 0.969-0.146 0.336-0.098 0.559-0.218 0.666-0.363z"/>
</g>
<path d="m128.61 131.99c3.451 0 6.302 1.107 8.546 3.329 2.244 2.221 3.364 5.036 3.364 8.447 0 2.617-0.665 5.089-1.988 7.403-1.329 2.314-3.096 4.092-5.299 5.334-2.204 1.241-4.733 1.859-7.597 1.859-3.573 0-6.43-1.061-8.563-3.177-2.14-2.116-3.206-4.903-3.206-8.359 0-3.93 1.276-7.305 3.83-10.127 2.845-3.141 6.482-4.709 10.913-4.709zm-0.186 4.442c-1.802 0-3.445 0.437-4.938 1.306-1.487 0.874-2.688 2.122-3.598 3.76-0.915 1.633-1.369 3.323-1.369 5.061 0 2.063 0.635 3.813 1.9 5.247s3.084 2.15 5.456 2.15c2.746 0 5.084-0.968 7.008-2.902 1.918-1.936 2.879-4.285 2.879-7.055 0-2.291-0.676-4.121-2.028-5.497-1.352-1.382-3.119-2.07-5.31-2.07zm18.071-3.812h4.711l-2.833 20.776h7.812l-0.549 4.337h-12.568l3.427-25.113zm26.881-0.63c3.451 0 6.302 1.107 8.546 3.329 2.244 2.221 3.364 5.036 3.364 8.447 0 2.617-0.665 5.089-1.988 7.403-1.329 2.314-3.096 4.092-5.299 5.334-2.204 1.241-4.733 1.859-7.597 1.859-3.573 0-6.43-1.061-8.563-3.177-2.14-2.116-3.206-4.903-3.206-8.359 0-3.93 1.276-7.305 3.83-10.127 2.844-3.141 6.482-4.709 10.913-4.709zm-0.187 4.442c-1.802 0-3.445 0.437-4.938 1.306-1.487 0.874-2.688 2.122-3.598 3.76-0.915 1.633-1.369 3.323-1.369 5.061 0 2.063 0.635 3.813 1.9 5.247s3.084 2.15 5.456 2.15c2.746 0 5.084-0.968 7.008-2.902 1.918-1.936 2.879-4.285 2.879-7.055 0-2.291-0.676-4.121-2.028-5.497-1.352-1.382-3.118-2.07-5.31-2.07zm18.317-3.812h4.354c2.688 0 4.582 0.233 5.679 0.699 1.363 0.583 2.396 1.388 3.089 2.419 0.694 1.032 1.044 2.257 1.044 3.667 0 1.743-0.519 3.235-1.551 4.483-1.037 1.247-2.6 2.122-4.692 2.611l5.485 11.233h-4.879l-5.347-10.947h-0.402l-1.492 10.947h-4.716l3.428-25.112zm3.346 10.038c2.547-0.012 4.208-0.273 4.979-0.793 0.77-0.513 1.154-1.288 1.154-2.32 0-0.588-0.152-1.084-0.461-1.48-0.31-0.396-0.758-0.676-1.341-0.833-0.583-0.158-1.772-0.239-3.557-0.239l-0.774 5.665z" fill="#EA570F"/>
<path d="m119.6 168.34h3.976l6.261 25.114h-4.576l-1.335-5.352h-9.939l-2.862 5.352h-5.072l13.547-25.114zm3.183 15.32-2.017-8.231-4.401 8.231h6.418zm14.143-15.32h3.923c2.391 0 4.163 0.257 5.323 0.77 1.16 0.514 2.093 1.306 2.804 2.391 0.711 1.078 1.066 2.244 1.066 3.497 0 1.044-0.25 2.035-0.752 2.962-0.507 0.927-1.229 1.702-2.18 2.332 2.232 1.557 3.352 3.632 3.352 6.214 0 1.341-0.355 2.571-1.072 3.685-0.711 1.119-1.592 1.941-2.641 2.472-1.05 0.531-2.571 0.793-4.554 0.793h-8.697l3.428-25.116zm3.392 9.968h0.852c1.271 0 2.134-0.093 2.588-0.279 0.455-0.187 0.84-0.537 1.154-1.05 0.321-0.507 0.479-1.072 0.479-1.696 0-0.583-0.141-1.078-0.42-1.498-0.285-0.42-0.653-0.705-1.107-0.852-0.455-0.146-1.382-0.222-2.781-0.222l-0.765 5.597zm-1.457 10.704 2.845 0.105c1.435 0 2.472-0.28 3.125-0.84 0.652-0.56 0.979-1.323 0.979-2.297 0-0.705-0.204-1.341-0.606-1.9s-0.938-0.95-1.609-1.178c-0.67-0.232-1.953-0.35-3.854-0.361l-0.88 6.471zm29.912-21.301c3.451 0 6.302 1.107 8.546 3.328 2.244 2.222 3.364 5.037 3.364 8.447 0 2.618-0.665 5.089-1.988 7.403-1.329 2.314-3.096 4.093-5.299 5.335-2.204 1.241-4.734 1.859-7.597 1.859-3.573 0-6.43-1.062-8.563-3.178-2.14-2.116-3.206-4.902-3.206-8.359 0-3.93 1.276-7.305 3.83-10.126 2.845-3.142 6.483-4.709 10.913-4.709zm-0.186 4.441c-1.802 0-3.445 0.438-4.938 1.307-1.487 0.874-2.688 2.122-3.598 3.76-0.915 1.632-1.37 3.322-1.37 5.061 0 2.063 0.636 3.813 1.901 5.246 1.265 1.435 3.084 2.151 5.456 2.151 2.746 0 5.083-0.968 7.008-2.903 1.917-1.936 2.879-4.285 2.879-7.054 0-2.291-0.676-4.122-2.028-5.497-1.352-1.382-3.119-2.071-5.31-2.071zm18.316-3.812h4.354c2.688 0 4.582 0.233 5.679 0.7 1.364 0.583 2.396 1.387 3.089 2.419 0.694 1.032 1.044 2.256 1.044 3.667 0 1.743-0.519 3.235-1.551 4.483-1.037 1.247-2.6 2.121-4.692 2.611l5.485 11.233h-4.879l-5.347-10.948h-0.401l-1.493 10.948h-4.716l3.428-25.113zm3.347 10.039c2.547-0.012 4.208-0.274 4.979-0.793 0.77-0.514 1.153-1.288 1.153-2.32 0-0.589-0.151-1.084-0.46-1.48-0.31-0.396-0.758-0.677-1.341-0.834s-1.772-0.239-3.557-0.239l-0.774 5.666zm25.172-10.039h3.977l6.261 25.114h-4.576l-1.335-5.352h-9.939l-2.863 5.352h-5.071l13.546-25.114zm3.183 15.32-2.018-8.231-4.401 8.231h6.419zm8.33-15.32h15.32l-0.548 4.478h-5.206l-2.821 20.637h-4.682l2.821-20.637h-5.468l0.584-4.478zm29.504-0.629c3.451 0 6.302 1.107 8.547 3.328 2.244 2.222 3.363 5.037 3.363 8.447 0 2.618-0.665 5.089-1.988 7.403-1.329 2.314-3.096 4.093-5.299 5.335-2.204 1.241-4.734 1.859-7.597 1.859-3.573 0-6.43-1.062-8.563-3.178-2.14-2.116-3.206-4.902-3.206-8.359 0-3.93 1.276-7.305 3.83-10.126 2.845-3.142 6.483-4.709 10.913-4.709zm-0.186 4.441c-1.802 0-3.445 0.438-4.938 1.307-1.486 0.874-2.688 2.122-3.597 3.76-0.915 1.632-1.37 3.322-1.37 5.061 0 2.063 0.636 3.813 1.901 5.246 1.265 1.435 3.083 2.151 5.456 2.151 2.746 0 5.084-0.968 7.008-2.903 1.918-1.936 2.88-4.285 2.88-7.054 0-2.291-0.677-4.122-2.029-5.497-1.353-1.382-3.119-2.071-5.311-2.071zm18.316-3.812h4.355c2.687 0 4.581 0.233 5.678 0.7 1.364 0.583 2.396 1.387 3.09 2.419 0.693 1.032 1.043 2.256 1.043 3.667 0 1.743-0.519 3.235-1.551 4.483-1.037 1.247-2.6 2.121-4.692 2.611l5.485 11.233h-4.879l-5.346-10.948h-0.402l-1.493 10.948h-4.716l3.428-25.113zm3.347 10.039c2.547-0.012 4.209-0.274 4.979-0.793 0.77-0.514 1.154-1.288 1.154-2.32 0-0.589-0.152-1.084-0.461-1.48s-0.758-0.677-1.341-0.834-1.772-0.239-3.556-0.239l-0.775 5.666zm12.499-10.039h4.798l3.882 10.051 7.13-10.051h5.393l-10.65 15.023-1.394 10.091h-4.717l1.388-10.039-5.83-15.075z" fill="#EA570F"/>
<path d="m69.226 123.6h7.063l-5.865 43.402c-2.059 0.332-4.152 0.521-6.281 0.497l-0.845-9e-3 5.928-43.89zm0.055 52.89-1.528 10.278h30.045l-0.809 6.608h-37.188l2.39-16.66c0.536 0.016 1.077 0.024 1.625 0.024 1.902 1e-3 3.724-0.083 5.465-0.25z" fill="#EA570F"/>
<path d="m99.191 113.31-4.228 5.831c-7.386-6.932-15.809-10.398-25.252-10.398-6.171 0-11.921 1.506-17.281 4.503-5.362 3.012-9.541 7.062-12.57 12.164-3.012 5.086-4.519 10.561-4.519 16.424 0 5.216 1.166 9.864 3.482 13.913 2.332 4.049 5.685 7.224 10.074 9.524 4.391 2.283 9.427 3.433 15.08 3.433 8.633 0 16.666-2.72 24.134-8.163l3.887 5.556c-5.539 3.58-10.301 5.994-14.302 7.24-3.984 1.248-8.601 1.879-13.816 1.879-9.669 0-17.541-2.413-23.615-7.256-8.082-6.479-12.115-15.129-12.115-25.948 0-11.159 4.033-20.618 12.115-28.409 8.066-7.774 18.108-11.662 30.095-11.662 5.49 0 10.464 0.858 14.966 2.575 4.486 1.733 9.119 4.649 13.865 8.794z" fill="#EA570F"/>
</svg>
